<svg width="100" height="100" viewBox="0 0 100 100" fill="none" xmlns="http://www.w3.org/2000/svg">
<rect width="100" height="100" fill="#1D2833"/>
<path d="M49.874 20.3955C49.9572 20.3955 50.0403 20.3955 50.126 20.3955C50.2962 20.6449 50.4487 20.8921 50.5989 21.1533C50.6458 21.2332 50.6927 21.313 50.7411 21.3953C50.8429 21.5688 50.9443 21.7425 51.0454 21.9165C51.2606 22.287 51.4778 22.6563 51.6951 23.0256C51.8068 23.2154 51.9182 23.4053 52.0297 23.5952C52.5469 24.4759 53.0746 25.3498 53.6061 26.2219C53.6944 26.367 53.7827 26.5121 53.8709 26.6572C54.134 27.0896 54.3976 27.5219 54.6611 27.9541C55.0131 28.5313 55.3648 29.1087 55.7162 29.6863C55.7818 29.7943 55.7818 29.7943 55.8488 29.9044C56.6255 31.1821 57.3897 32.467 58.1513 33.7536C58.8554 34.9423 59.5649 36.1275 60.2828 37.3079C60.3267 37.3799 60.3704 37.4519 60.4156 37.5262C60.7227 38.031 61.0303 38.5355 61.3379 39.04C61.6899 39.6173 62.0416 40.1946 62.3929 40.7722C62.4365 40.8439 62.4802 40.9156 62.5251 40.9895C63.3135 42.286 64.088 43.5904 64.8606 44.8963C65.6181 46.176 66.3875 47.4473 67.1751 48.7087C67.2584 48.8429 67.2584 48.8429 67.3433 48.9798C67.4587 49.162 67.5774 49.342 67.6988 49.5202C67.7579 49.6083 67.817 49.6965 67.8778 49.7874C67.9314 49.8648 67.9849 49.9423 68.0401 50.0222C68.1406 50.252 68.1406 50.252 68.1352 50.5059C67.9571 50.8753 67.7089 50.9854 67.3558 51.1885C67.217 51.2693 67.0781 51.3502 66.935 51.4336C66.7832 51.52 66.6313 51.6065 66.4792 51.6929C66.3235 51.7829 66.168 51.8731 66.0125 51.9636C65.6968 52.1469 65.3806 52.3294 65.0642 52.5115C64.4355 52.8733 63.8119 53.2436 63.1882 53.614C62.963 53.747 62.7377 53.8801 62.5125 54.013C61.8269 54.4179 61.1415 54.823 60.4561 55.228C59.7706 55.633 59.0852 56.0382 58.3996 56.4431C57.2772 57.106 56.1548 57.7694 55.0336 58.4344C54.7449 58.6056 54.4558 58.7763 54.1667 58.9466C53.4703 59.3575 52.7777 59.7728 52.0918 60.2012C51.9659 60.2788 51.8399 60.3564 51.71 60.4364C51.4737 60.5823 51.2385 60.7301 51.0049 60.8802C50.2373 61.35 50.2373 61.35 49.7426 61.2961C49.6197 61.2268 49.4967 61.1574 49.3701 61.0859C49.2468 61.0173 49.2468 61.0173 49.1209 60.9471C48.822 60.7764 48.5292 60.5975 48.2363 60.4167C48.0103 60.2792 47.7843 60.1416 47.5582 60.0043C47.4415 59.9333 47.3249 59.8621 47.2048 59.7889C46.6329 59.4422 46.0568 59.1027 45.4806 58.7632C45.2473 58.6256 45.0141 58.488 44.7808 58.3504C44.6069 58.2478 44.6069 58.2478 44.4296 58.1432C43.8506 57.8017 43.272 57.4597 42.6934 57.1177C42.4624 56.9812 42.2314 56.8447 42.0005 56.7083C41.5385 56.4353 41.0767 56.1624 40.6147 55.8894C40.5005 55.8219 40.3862 55.7544 40.2684 55.6848C40.037 55.548 39.8055 55.4112 39.5741 55.2744C39.0045 54.9379 38.435 54.6014 37.8654 54.2649C37.4129 53.9977 36.9605 53.7304 36.5082 53.4628C36.0349 53.1829 35.5612 52.9035 35.0873 52.6243C34.7754 52.4405 34.4636 52.2564 34.1518 52.0723C34 51.9827 33.8482 51.8933 33.6964 51.804C33.4837 51.679 33.2714 51.5535 33.0591 51.4281C32.9369 51.356 32.8147 51.284 32.6887 51.2098C32.3988 51.0299 32.1282 50.8398 31.8594 50.6299C31.945 50.1502 32.1627 49.7881 32.4085 49.3706C32.4515 49.2974 32.4943 49.2244 32.5385 49.149C32.6789 48.9101 32.8202 48.6716 32.9617 48.4331C33.0602 48.2661 33.1587 48.099 33.2572 47.9318C33.8663 46.901 34.4885 45.8791 35.1237 44.8641C35.7411 43.8739 36.336 42.8709 36.9299 41.8667C37.6949 40.5738 38.4639 39.2839 39.2448 38.0007C39.2885 37.9288 39.3323 37.8569 39.3774 37.7827C39.7282 37.2061 40.0796 36.6297 40.4311 36.0534C40.7392 35.5478 41.0472 35.0422 41.3549 34.5364C41.3986 34.4646 41.4422 34.3928 41.4871 34.3188C42.2726 33.0269 43.0451 31.7276 43.8156 30.4266C44.6557 29.0081 45.5074 27.5971 46.3677 26.1907C46.769 25.5337 47.1684 24.8757 47.5679 24.2177C47.7067 23.9892 47.8457 23.7608 47.9848 23.5324C48.3667 22.9043 48.7475 22.2758 49.1192 21.6415C49.1723 21.5511 49.2254 21.4608 49.2802 21.3676C49.4132 21.1405 49.545 20.9127 49.6767 20.6849C49.7744 20.5416 49.7744 20.5416 49.874 20.3955Z" fill="white"/>
<path d="M31.8594 53.9053C32.8663 54.448 33.8611 55.0096 34.8513 55.5823C34.9593 55.6446 34.9593 55.6446 35.0694 55.7083C36.0286 56.2625 36.9835 56.8229 37.9313 57.3962C38.532 57.759 39.1365 58.1153 39.7407 58.4719C39.8585 58.5415 39.9763 58.611 40.0977 58.6826C40.3387 58.8249 40.5798 58.9671 40.821 59.1095C41.4032 59.453 41.9854 59.7971 42.5674 60.1411C42.7983 60.2775 43.0293 60.4141 43.2603 60.5505C44.646 61.3694 44.646 61.3694 44.9929 61.5745C45.2221 61.7099 45.4514 61.8452 45.6806 61.9805C46.2855 62.3375 46.8896 62.6958 47.4928 63.0558C47.6185 63.1307 47.7443 63.2055 47.8739 63.2827C48.1149 63.4262 48.3558 63.5699 48.5962 63.7142C48.705 63.7788 48.8137 63.8434 48.9258 63.9101C49.0209 63.9669 49.1161 64.0238 49.2142 64.0824C49.3073 64.1329 49.4002 64.1833 49.4961 64.2354C49.5971 64.291 49.6983 64.3467 49.8025 64.404C50.1328 64.5223 50.1328 64.5223 50.4657 64.3569C50.648 64.2439 50.648 64.2439 50.8341 64.1285C50.9713 64.0453 51.1085 63.9619 51.2498 63.8761C51.3975 63.7832 51.5451 63.6904 51.6929 63.5977C51.8459 63.5037 51.9992 63.41 52.1528 63.3165C52.464 63.1266 52.7745 62.9357 53.0845 62.7439C53.7017 62.3631 54.327 61.9961 54.9524 61.6291C55.1778 61.4962 55.4029 61.3632 55.6281 61.2302C55.7385 61.1649 55.8488 61.0998 55.9626 61.0326C56.4205 60.7621 56.8786 60.4915 57.3365 60.2209C57.5687 60.0835 57.8008 59.9464 58.0331 59.8092C58.5995 59.4746 59.1659 59.1397 59.7322 58.8046C60.7337 58.212 61.7356 57.6203 62.7399 57.0325C62.8172 56.9873 62.8946 56.9421 62.9742 56.8955C63.1319 56.8031 63.2896 56.7108 63.4474 56.6186C63.5255 56.5728 63.6037 56.5271 63.6842 56.48C63.7617 56.4346 63.8392 56.3893 63.9189 56.3425C65.29 55.5399 66.6547 54.7269 68.0146 53.9053C68.0562 53.9884 68.0978 54.0716 68.1406 54.1572C67.3613 55.3035 66.5682 56.4377 65.7534 57.559C65.1634 58.3725 64.5872 59.1952 64.0128 60.0197C63.5247 60.7191 63.0286 61.412 62.5269 62.1016C61.9665 62.8718 61.4232 63.6515 60.8892 64.4401C60.321 65.2786 59.7309 66.0946 59.1177 66.9006C58.6281 67.5469 58.1664 68.209 57.711 68.8797C57.2779 69.5158 56.8307 70.1405 56.3776 70.7625C55.8093 71.5431 55.2575 72.3329 54.7163 73.1324C54.1487 73.9702 53.5592 74.7856 52.9466 75.5909C52.3226 76.4144 51.7412 77.265 51.1613 78.1197C50.8214 78.6182 50.4734 79.1112 50.126 79.6045C49.5981 79.4285 49.4266 79.0508 49.1339 78.6045C49.0093 78.4189 48.8845 78.2334 48.7594 78.0481C48.6943 77.9513 48.6291 77.8547 48.562 77.755C48.2396 77.2835 47.9035 76.8222 47.5671 76.3606C46.9074 75.4531 46.2615 74.5367 45.6202 73.6161C45.1321 72.9166 44.636 72.2238 44.1343 71.5342C43.5719 70.7611 43.0256 69.9788 42.4886 69.1877C41.9459 68.3883 41.3904 67.6016 40.8152 66.8251C40.1229 65.8896 39.4569 64.9358 38.7881 63.9834C38.539 63.6289 38.2896 63.2747 38.04 62.9204C37.9779 62.8324 37.9158 62.7442 37.8518 62.6532C37.395 62.0062 36.9311 61.3645 36.4653 60.7238C35.8266 59.8442 35.2096 58.9516 34.5994 58.052C34.1629 57.4108 33.7145 56.7804 33.2529 56.1571C31.8594 54.2739 31.8594 54.2739 31.8594 53.9053Z" fill="#EEEEEE"/>
<path d="M49.874 20.3955C49.9156 20.3955 49.9572 20.3955 50 20.3955C50 27.6291 50 34.8627 50 42.3154C49.3764 42.6064 48.7528 42.8974 48.1104 43.1973C47.9069 43.2923 47.7033 43.3872 47.4937 43.4851C45.1396 44.5833 42.7819 45.6711 40.4049 46.7189C38.5762 47.5256 36.7623 48.3632 34.9505 49.2072C34.8451 49.2564 34.7398 49.3054 34.6312 49.3559C34.4358 49.447 34.2406 49.5382 34.0453 49.6294C33.7789 49.7537 33.5122 49.8772 33.2451 50C33.1427 50.0472 33.0403 50.0945 32.9347 50.1432C32.833 50.1895 32.7313 50.2357 32.6264 50.2833C32.5339 50.3255 32.4413 50.3679 32.3459 50.4113C32.1113 50.5039 32.1113 50.5039 31.8594 50.5039C32.054 49.9674 32.323 49.4893 32.6152 49.0015C32.6646 48.9185 32.7139 48.8353 32.7648 48.7498C32.9244 48.4812 33.0847 48.2131 33.2451 47.9451C33.356 47.7589 33.467 47.5728 33.5778 47.3867C33.6873 47.2032 33.7969 47.0198 33.9065 46.8363C33.9569 46.7521 34.0071 46.6678 34.0591 46.581C34.5015 45.8434 34.9575 45.1148 35.4177 44.3881C35.9289 43.57 36.4151 42.7363 36.9062 41.906C37.6791 40.6001 38.456 39.297 39.2448 38.0007C39.2885 37.9288 39.3322 37.857 39.3773 37.7829C39.7281 37.2062 40.0796 36.6297 40.4311 36.0534C40.7392 35.5478 41.0472 35.0422 41.3549 34.5364C41.3986 34.4646 41.4422 34.3928 41.4871 34.3188C42.2726 33.0269 43.0451 31.7276 43.8156 30.4266C44.6557 29.0081 45.5074 27.5971 46.3677 26.1907C46.769 25.5337 47.1684 24.8757 47.568 24.2177C47.7067 23.9892 47.8455 23.7608 47.9844 23.5324C48.3665 22.9035 48.7479 22.2742 49.1236 21.6415C49.2041 21.5059 49.2041 21.5059 49.2863 21.3676C49.381 21.208 49.4751 21.0481 49.5688 20.8878C49.6672 20.7217 49.77 20.5582 49.874 20.3955Z" fill="#F9F9F9"/>
<path d="M50 20.3955C50.3864 20.8785 50.6914 21.3165 51.0014 21.8447C51.048 21.9237 51.0946 22.0027 51.1425 22.084C51.2426 22.2539 51.3425 22.4238 51.4423 22.5939C51.7099 23.0501 51.9792 23.5054 52.2484 23.9607C52.3031 24.0533 52.3578 24.1459 52.4141 24.2413C52.931 25.1154 53.4559 25.9845 53.984 26.8518C54.0277 26.9236 54.0713 26.9953 54.1163 27.0693C54.4235 27.5744 54.7313 28.0792 55.0391 28.584C55.391 29.1612 55.7428 29.7385 56.0941 30.3162C56.1596 30.4239 56.1596 30.4239 56.2264 30.5337C57.0119 31.8256 57.7843 33.1249 58.5548 34.4259C59.3968 35.8475 60.2503 37.2616 61.1124 38.6713C61.5323 39.358 61.9511 40.0452 62.3694 40.7329C62.4136 40.8056 62.4579 40.8784 62.5036 40.9535C63.299 42.262 64.0807 43.5783 64.8604 44.8962C65.6179 46.1759 66.3875 47.4472 67.1751 48.7087C67.2587 48.8425 67.2587 48.8425 67.3438 48.979C67.4596 49.1629 67.5766 49.3463 67.6944 49.5291C67.7524 49.6195 67.8103 49.71 67.87 49.8032C67.9221 49.8836 67.9741 49.964 68.0278 50.0467C68.1406 50.252 68.1406 50.252 68.1406 50.5039C67.5556 50.3216 67.0048 50.0891 66.4508 49.8297C66.3608 49.7881 66.2709 49.7464 66.1782 49.7035C65.9839 49.6135 65.7897 49.5234 65.5955 49.4332C63.9 48.6452 62.1983 47.8728 60.4875 47.1183C58.4093 46.2009 56.3482 45.2485 54.2891 44.2892C52.8618 43.6261 51.4307 42.9711 50 42.3154C50 35.0819 50 27.8483 50 20.3955Z" fill="#EEEEEE"/>
<path d="M50 42.3154C50 48.5928 50 54.8703 50 61.3379C49.2645 60.9702 48.5824 60.6283 47.8899 60.2041C47.7268 60.105 47.5635 60.0058 47.4002 59.9069C47.3127 59.8536 47.2251 59.8005 47.1348 59.7457C46.5988 59.4223 46.0592 59.105 45.52 58.7869C45.4024 58.7175 45.2847 58.648 45.1635 58.5765C44.9223 58.4341 44.681 58.2917 44.4398 58.1493C43.8575 57.8058 43.2754 57.4617 42.6934 57.1177C42.4624 56.9812 42.2314 56.8447 42.0005 56.7083C41.3076 56.2988 41.3076 56.2988 40.6147 55.8894C40.5005 55.8219 40.3862 55.7544 40.2684 55.6848C40.037 55.548 39.8055 55.4112 39.5741 55.2744C38.8921 54.8715 38.2102 54.4686 37.5283 54.0659C37.3032 53.933 37.0782 53.7998 36.8532 53.6667C36.2655 53.3187 35.6771 52.9719 35.0873 52.6276C34.7752 52.4452 34.4634 52.2623 34.1518 52.0792C34.0001 51.9904 33.8483 51.9019 33.6964 51.8136C33.4835 51.6898 33.2713 51.5651 33.0591 51.4404C32.8758 51.3333 32.8758 51.3333 32.6887 51.2241C32.3688 51.0115 32.1199 50.785 31.8594 50.5039C34.4192 49.3089 36.9812 48.1209 39.5664 46.9816C41.1291 46.2923 42.6804 45.5797 44.2288 44.8586C45.6854 44.1801 47.1431 43.5055 48.6143 42.8586C48.7435 42.8018 48.8729 42.7449 49.006 42.6863C49.8565 42.3154 49.8565 42.3154 50 42.3154Z" fill="white"/>
<path d="M68.0146 53.9053C68.0562 53.9884 68.0978 54.0716 68.1406 54.1572C67.3613 55.3035 66.5682 56.4377 65.7533 57.559C65.1633 58.3725 64.5872 59.1952 64.0127 60.0197C63.5246 60.7191 63.0285 61.412 62.5267 62.1016C61.9664 62.8718 61.423 63.6515 60.889 64.4401C60.3209 65.2786 59.7309 66.0946 59.1177 66.9006C58.628 67.5469 58.1664 68.209 57.711 68.8797C57.2778 69.5158 56.8306 70.1405 56.3775 70.7625C55.8091 71.5431 55.2575 72.3329 54.7162 73.1324C54.1486 73.9702 53.5592 74.7856 52.9464 75.5909C52.3225 76.4144 51.7408 77.2651 51.1606 78.1197C50.9379 78.4476 50.7136 78.7746 50.4881 79.1006C50.3862 79.2487 50.3862 79.2487 50.2824 79.3998C50.2049 79.5011 50.2049 79.5011 50.126 79.6045C50.0844 79.6045 50.0428 79.6045 50 79.6045C49.9734 77.6629 49.9535 75.7215 49.9411 73.7798C49.9354 72.8782 49.9274 71.9767 49.9144 71.0753C49.9031 70.2893 49.8958 69.5036 49.8933 68.7175C49.8918 68.3014 49.8877 67.8855 49.8801 67.4695C49.8719 67.0046 49.8707 66.5402 49.8712 66.0752C49.8672 65.9378 49.863 65.8004 49.8589 65.6586C49.8701 64.7444 49.8701 64.7444 50.247 64.3637C50.5353 64.169 50.8212 64.0095 51.1338 63.8574C51.2655 63.7778 51.3973 63.6982 51.5331 63.6162C51.6524 63.5481 51.7716 63.4801 51.8945 63.4101C52.029 63.3331 52.1634 63.2561 52.3018 63.1768C52.4412 63.0974 52.5806 63.018 52.7242 62.9363C53.0179 62.768 53.3115 62.5994 53.6051 62.4309C53.8147 62.3104 53.8147 62.3104 54.0286 62.1876C54.4837 61.9247 54.9357 61.6571 55.3855 61.3851C56.4898 60.7172 57.6019 60.0628 58.7135 59.4069C59.0543 59.2057 59.3949 59.0042 59.7356 58.8026C60.7358 58.2106 61.7366 57.6196 62.7399 57.0325C62.8558 56.9646 62.8558 56.9646 62.9742 56.8955C63.1319 56.8031 63.2896 56.7108 63.4473 56.6186C63.5255 56.5728 63.6036 56.5271 63.6842 56.48C63.7615 56.4346 63.839 56.3893 63.9189 56.3425C65.29 55.5399 66.6547 54.7269 68.0146 53.9053Z" fill="white"/>
</svg>
