<svg width="32" height="32" viewBox="0 0 32 32" fill="none" xmlns="http://www.w3.org/2000/svg">
<g clip-path="url(#clip0_99_1529)">
<path d="M0 -0.5H-0.5V0V32V32.5H0H32H32.5V32V0V-0.5H32H0Z" fill="white" stroke="#F1F1F1"/>
<path d="M15.96 6.52637C15.9866 6.52637 16.0132 6.52637 16.0406 6.52637C16.0951 6.60616 16.1439 6.68529 16.192 6.76887C16.2069 6.79443 16.222 6.81998 16.2374 6.84631C16.27 6.90182 16.3024 6.95742 16.3348 7.01308C16.4037 7.13164 16.4732 7.24982 16.5428 7.36801C16.5784 7.42874 16.6141 7.4895 16.6498 7.55026C16.8152 7.8321 16.9841 8.11173 17.1542 8.39085C17.1825 8.43725 17.2108 8.48365 17.239 8.53013C17.3232 8.66853 17.4075 8.80685 17.4919 8.94509C17.6044 9.12981 17.717 9.31461 17.8295 9.49941C17.8504 9.53397 17.8504 9.53397 17.8719 9.56925C18.1204 9.97813 18.365 10.3892 18.6087 10.8009C18.834 11.1813 19.0611 11.5606 19.2908 11.9383C19.3048 11.9614 19.3188 11.9844 19.3332 12.0082C19.4316 12.1697 19.53 12.3312 19.6284 12.4926C19.741 12.6773 19.8536 12.862 19.966 13.0469C19.98 13.0699 19.994 13.0928 20.0083 13.1164C20.2606 13.5313 20.5084 13.9488 20.7556 14.3666C20.998 14.7761 21.2443 15.1829 21.4964 15.5866C21.523 15.6296 21.523 15.6296 21.5501 15.6733C21.5871 15.7316 21.6251 15.7892 21.6639 15.8463C21.6828 15.8744 21.7017 15.9027 21.7212 15.9317C21.7384 15.9565 21.7555 15.9813 21.7731 16.0069C21.8052 16.0804 21.8052 16.0804 21.8036 16.1617C21.7465 16.2799 21.6672 16.3152 21.5541 16.3801C21.5097 16.406 21.4653 16.4319 21.4195 16.4585C21.3709 16.4862 21.3223 16.5139 21.2736 16.5415C21.2238 16.5704 21.174 16.5992 21.1243 16.6281C21.0232 16.6868 20.922 16.7452 20.8208 16.8035C20.6196 16.9192 20.4201 17.0378 20.2205 17.1563C20.1484 17.1988 20.0764 17.2414 20.0043 17.284C19.7849 17.4135 19.5656 17.5432 19.3462 17.6728C19.1268 17.8024 18.9076 17.932 18.6881 18.0616C18.329 18.2737 17.9698 18.486 17.6111 18.6988C17.5187 18.7536 17.4261 18.8082 17.3336 18.8627C17.1108 18.9942 16.8892 19.1271 16.6696 19.2642C16.6293 19.289 16.5891 19.3139 16.5475 19.3395C16.4719 19.3861 16.3966 19.4334 16.3219 19.4815C16.0762 19.6318 16.0762 19.6318 15.918 19.6145C15.8786 19.5924 15.8392 19.5701 15.7987 19.5473C15.7592 19.5253 15.7592 19.5253 15.719 19.5028C15.6233 19.4483 15.5296 19.391 15.4359 19.3332C15.3636 19.2892 15.2912 19.2451 15.2189 19.2012C15.1816 19.1784 15.1443 19.1556 15.1058 19.1323C14.9228 19.0213 14.7384 18.9127 14.554 18.804C14.4794 18.76 14.4048 18.716 14.3301 18.6719C14.2745 18.6391 14.2745 18.6391 14.2177 18.6056C14.0324 18.4964 13.8473 18.3869 13.6621 18.2775C13.5883 18.2338 13.5144 18.1901 13.4404 18.1464C13.2926 18.0591 13.1448 17.9718 12.997 17.8844C12.9604 17.8628 12.9239 17.8412 12.8862 17.8189C12.8121 17.7752 12.738 17.7314 12.664 17.6876C12.4817 17.58 12.2995 17.4723 12.1172 17.3646C11.9724 17.2791 11.8276 17.1936 11.6829 17.1079C11.5314 17.0184 11.3799 16.9289 11.2282 16.8396C11.1284 16.7808 11.0286 16.7218 10.9288 16.6629C10.8803 16.6343 10.8317 16.6056 10.7831 16.5771C10.7151 16.5371 10.6472 16.4969 10.5792 16.4568C10.54 16.4337 10.501 16.4107 10.4607 16.3869C10.3679 16.3293 10.2813 16.2685 10.1953 16.2014C10.2227 16.0479 10.2924 15.932 10.371 15.7984C10.3848 15.775 10.3984 15.7516 10.4126 15.7275C10.4575 15.651 10.5028 15.5747 10.548 15.4984C10.5796 15.4449 10.6111 15.3915 10.6426 15.338C10.8375 15.0081 11.0366 14.6811 11.2399 14.3563C11.4374 14.0395 11.6278 13.7184 11.8179 13.3972C12.0626 12.9834 12.3088 12.5707 12.5586 12.16C12.5726 12.137 12.5866 12.114 12.6011 12.0903C12.7133 11.9057 12.8257 11.7213 12.9382 11.5369C13.0368 11.3751 13.1354 11.2133 13.2338 11.0515C13.2478 11.0284 13.2618 11.0055 13.2762 10.9818C13.5275 10.5684 13.7747 10.1526 14.0212 9.73637C14.2901 9.28245 14.5627 8.83093 14.838 8.38085C14.9664 8.17061 15.0942 7.96004 15.222 7.74947C15.2664 7.67635 15.3109 7.60326 15.3554 7.53017C15.4776 7.32918 15.5995 7.12806 15.7184 6.92509C15.7354 6.89617 15.7524 6.86725 15.77 6.83745C15.8125 6.76477 15.8547 6.69188 15.8968 6.61897C15.9281 6.57313 15.9281 6.57313 15.96 6.52637Z" fill="#030303"/>
<path d="M10.1953 17.2495C10.5175 17.4232 10.8359 17.6029 11.1527 17.7862C11.1872 17.8062 11.1872 17.8062 11.2225 17.8265C11.5294 18.0038 11.835 18.1832 12.1383 18.3666C12.3305 18.4827 12.524 18.5967 12.7173 18.7109C12.755 18.7331 12.7927 18.7554 12.8316 18.7782C12.9087 18.8238 12.9858 18.8694 13.063 18.9149C13.2493 19.0248 13.4356 19.1349 13.6219 19.245C13.6957 19.2886 13.7696 19.3323 13.8436 19.376C14.287 19.6381 14.287 19.6381 14.398 19.7037C14.4713 19.747 14.5447 19.7903 14.6181 19.8336C14.8116 19.9478 15.005 20.0625 15.198 20.1777C15.2382 20.2017 15.2784 20.2256 15.32 20.2503C15.3971 20.2962 15.4741 20.3422 15.5511 20.3884C15.5859 20.409 15.6207 20.4298 15.6565 20.451C15.687 20.4693 15.7175 20.4874 15.7488 20.5062C15.7786 20.5224 15.8084 20.5385 15.839 20.5551C15.8714 20.573 15.9037 20.5908 15.9371 20.6091C16.0428 20.647 16.0428 20.647 16.1493 20.5941C16.2076 20.5579 16.2076 20.5579 16.2672 20.521C16.3111 20.4943 16.355 20.4676 16.4002 20.4402C16.4475 20.4105 16.4947 20.3808 16.542 20.3511C16.591 20.321 16.64 20.291 16.6892 20.2611C16.7888 20.2004 16.8881 20.1393 16.9873 20.0779C17.1848 19.956 17.3849 19.8386 17.5851 19.7212C17.6572 19.6786 17.7292 19.6361 17.8013 19.5935C17.8366 19.5726 17.8719 19.5518 17.9083 19.5303C18.0548 19.4437 18.2014 19.3571 18.348 19.2705C18.4223 19.2266 18.4965 19.1826 18.5709 19.1388C18.7521 19.0317 18.9334 18.9246 19.1146 18.8174C19.4351 18.6277 19.7556 18.4383 20.0771 18.2502C20.1018 18.2358 20.1265 18.2213 20.152 18.2064C20.2025 18.1768 20.253 18.1473 20.3034 18.1178C20.3284 18.1031 20.3535 18.0885 20.3792 18.0734C20.404 18.059 20.4288 18.0444 20.4544 18.0294C20.8931 17.7726 21.3298 17.5125 21.765 17.2495C21.7783 17.2762 21.7916 17.3027 21.8052 17.3302C21.5559 17.697 21.3021 18.0599 21.0413 18.4187C20.8526 18.679 20.6682 18.9423 20.4844 19.2062C20.3282 19.4299 20.1694 19.6517 20.0088 19.8723C19.8296 20.1188 19.6557 20.3683 19.4848 20.6206C19.303 20.889 19.1142 21.1502 18.918 21.4081C18.7613 21.6149 18.6136 21.8267 18.4678 22.0414C18.3292 22.2449 18.1861 22.4448 18.0411 22.6438C17.8592 22.8937 17.6827 23.1463 17.5095 23.4022C17.3279 23.6703 17.1392 23.9313 16.9432 24.189C16.7436 24.4525 16.5575 24.7246 16.3719 24.9982C16.2631 25.1577 16.1518 25.3154 16.0406 25.4733C15.8717 25.417 15.8168 25.2961 15.7232 25.1533C15.6832 25.0939 15.6433 25.0345 15.6033 24.9752C15.5824 24.9442 15.5616 24.9134 15.5401 24.8814C15.4369 24.7306 15.3294 24.583 15.2218 24.4352C15.0107 24.1448 14.804 23.8516 14.5988 23.557C14.4426 23.3332 14.2838 23.1114 14.1232 22.8908C13.9433 22.6434 13.7684 22.393 13.5967 22.1399C13.423 21.8841 13.2452 21.6323 13.0612 21.3838C12.8396 21.0845 12.6265 20.7793 12.4124 20.4746C12.3328 20.3611 12.2529 20.2478 12.1731 20.1344C12.1532 20.1062 12.1333 20.078 12.1128 20.0489C11.9667 19.8418 11.8182 19.6365 11.6692 19.4314C11.4648 19.15 11.2673 18.8644 11.072 18.5765C10.9324 18.3713 10.7889 18.1696 10.6412 17.9701C10.1952 17.3675 10.1953 17.3675 10.1953 17.2495Z" fill="#292929"/>
<path d="M15.96 6.52637C15.9732 6.52637 15.9866 6.52637 16.0003 6.52637C16.0003 8.84109 16.0003 11.1559 16.0003 13.5408C15.8008 13.6339 15.6012 13.727 15.3956 13.8229C15.3305 13.8533 15.2653 13.8837 15.1983 13.915C14.4449 14.2664 13.6905 14.6145 12.9298 14.9499C12.3447 15.208 11.7642 15.476 11.1844 15.7461C11.1508 15.7618 11.117 15.7775 11.0823 15.7937C11.0197 15.8228 10.9572 15.852 10.8948 15.8812C10.8096 15.921 10.7242 15.9605 10.6387 15.9998C10.606 16.0149 10.5732 16.03 10.5394 16.0456C10.5068 16.0604 10.4743 16.0752 10.4408 16.0904C10.4111 16.104 10.3815 16.1175 10.351 16.1314C10.2759 16.1611 10.2759 16.1611 10.1953 16.1611C10.2576 15.9893 10.3436 15.8364 10.4372 15.6803C10.4529 15.6537 10.4687 15.6271 10.485 15.5997C10.5361 15.5138 10.5874 15.428 10.6387 15.3422C10.6742 15.2827 10.7097 15.2231 10.7452 15.1636C10.7802 15.1048 10.8153 15.0461 10.8504 14.9874C10.8665 14.9604 10.8826 14.9335 10.8992 14.9057C11.0408 14.6697 11.1867 14.4365 11.334 14.204C11.4976 13.9422 11.6531 13.6754 11.8103 13.4097C12.0576 12.9919 12.3062 12.5748 12.5586 12.16C12.5726 12.137 12.5866 12.114 12.601 12.0904C12.7132 11.9058 12.8257 11.7213 12.9382 11.5369C13.0368 11.3751 13.1354 11.2133 13.2338 11.0515C13.2478 11.0284 13.2618 11.0055 13.2762 10.9818C13.5275 10.5684 13.7747 10.1526 14.0212 9.73637C14.2901 9.28245 14.5627 8.83093 14.838 8.38085C14.9664 8.17061 15.0942 7.96004 15.222 7.74947C15.2664 7.67636 15.3108 7.60326 15.3553 7.53017C15.4776 7.32892 15.5996 7.12757 15.7198 6.92509C15.7456 6.88171 15.7456 6.88171 15.7719 6.83745C15.8022 6.78636 15.8323 6.73518 15.8623 6.68392C15.8938 6.63075 15.9267 6.57842 15.96 6.52637Z" fill="#202020"/>
<path d="M16 6.52637C16.1236 6.68094 16.2212 6.82109 16.3205 6.99012C16.3354 7.01539 16.3502 7.04065 16.3656 7.06669C16.3977 7.12104 16.4296 7.17542 16.4615 7.22985C16.5472 7.37585 16.6334 7.52154 16.7195 7.66725C16.737 7.69687 16.7545 7.7265 16.7725 7.75702C16.9379 8.03677 17.1059 8.31485 17.2749 8.59237C17.2889 8.61533 17.3028 8.63829 17.3172 8.66197C17.4155 8.82357 17.514 8.98517 17.6125 9.14669C17.7251 9.33141 17.8377 9.51613 17.9501 9.70101C17.971 9.73541 17.971 9.73541 17.9925 9.77061C18.2438 10.184 18.491 10.5998 18.7375 11.0161C19.007 11.471 19.2801 11.9236 19.556 12.3746C19.6903 12.5944 19.8244 12.8143 19.9582 13.0344C19.9723 13.0576 19.9866 13.0809 20.0011 13.1049C20.2557 13.5236 20.5058 13.9448 20.7554 14.3666C20.9978 14.776 21.244 15.1829 21.4961 15.5866C21.5228 15.6294 21.5228 15.6294 21.55 15.6731C21.587 15.732 21.6246 15.7906 21.6622 15.8491C21.6807 15.878 21.6993 15.907 21.7184 15.9368C21.735 15.9625 21.7517 15.9883 21.7689 16.0148C21.805 16.0804 21.805 16.0804 21.805 16.1611C21.6178 16.1027 21.4415 16.0283 21.2642 15.9453C21.2354 15.932 21.2067 15.9187 21.177 15.9049C21.1149 15.8761 21.0527 15.8473 20.9906 15.8184C20.448 15.5663 19.9034 15.3191 19.356 15.0776C18.691 14.7841 18.0314 14.4793 17.3725 14.1724C16.9158 13.9601 16.4578 13.7506 16 13.5408C16 11.226 16 8.91125 16 6.52637Z" fill="#292929"/>
<path d="M16.0003 13.541C16.0003 15.5497 16.0003 17.5585 16.0003 19.6282C15.7649 19.5105 15.5467 19.4011 15.3251 19.2653C15.2728 19.2337 15.2206 19.2019 15.1684 19.1703C15.1404 19.1533 15.1123 19.1362 15.0834 19.1187C14.9119 19.0152 14.7392 18.9137 14.5667 18.8118C14.529 18.7897 14.4914 18.7674 14.4526 18.7445C14.3754 18.699 14.2982 18.6534 14.221 18.6078C14.0347 18.4979 13.8484 18.3878 13.6621 18.2777C13.5883 18.2341 13.5144 18.1904 13.4404 18.1467C13.2187 18.0157 13.2187 18.0157 12.997 17.8847C12.9604 17.8631 12.9239 17.8414 12.8862 17.8192C12.8121 17.7754 12.738 17.7317 12.664 17.6879C12.4458 17.5589 12.2276 17.4301 12.0093 17.3012C11.9373 17.2586 11.8653 17.216 11.7933 17.1734C11.6052 17.0621 11.4169 16.9511 11.2282 16.8409C11.1284 16.7825 11.0286 16.724 10.9288 16.6654C10.8803 16.637 10.8317 16.6086 10.7831 16.5804C10.715 16.5408 10.6471 16.5009 10.5792 16.461C10.5205 16.4267 10.5205 16.4267 10.4607 16.3917C10.3583 16.3237 10.2787 16.2513 10.1953 16.1613C11.0144 15.7789 11.8343 15.3988 12.6615 15.0341C13.1616 14.8136 13.658 14.5856 14.1535 14.3549C14.6196 14.1377 15.086 13.9218 15.5568 13.7149C15.5982 13.6966 15.6396 13.6785 15.6822 13.6597C15.9544 13.541 15.9544 13.541 16.0003 13.541Z" fill="#030303"/>
<path d="M21.763 17.2495C21.7762 17.2762 21.7896 17.3027 21.8033 17.3302C21.5539 17.697 21.3001 18.0599 21.0394 18.4187C20.8506 18.679 20.6662 18.9423 20.4823 19.2062C20.3262 19.4299 20.1674 19.6517 20.0068 19.8723C19.8275 20.1188 19.6537 20.3683 19.4828 20.6206C19.301 20.889 19.1122 21.1502 18.9159 21.4081C18.7592 21.6149 18.6115 21.8267 18.4658 22.0414C18.3272 22.2449 18.1841 22.4448 18.0391 22.6438C17.8572 22.8937 17.6806 23.1463 17.5074 23.4022C17.3258 23.6703 17.1372 23.9313 16.9411 24.189C16.7414 24.4525 16.5554 24.7246 16.3697 24.9982C16.2984 25.1031 16.2266 25.2077 16.1545 25.312C16.1218 25.3594 16.1218 25.3594 16.0886 25.4078C16.0638 25.4402 16.0638 25.4402 16.0386 25.4733C16.0253 25.4733 16.012 25.4733 15.9982 25.4733C15.9898 24.852 15.9834 24.2307 15.9794 23.6094C15.9776 23.3209 15.975 23.0324 15.9709 22.7439C15.9673 22.4924 15.965 22.241 15.9642 21.9894C15.9637 21.8562 15.9623 21.7232 15.9599 21.5901C15.9573 21.4413 15.9569 21.2927 15.957 21.1439C15.9558 21.0999 15.9545 21.0559 15.9531 21.0106C15.9567 20.7181 15.9567 20.7181 16.0774 20.5962C16.1696 20.5339 16.261 20.4829 16.3611 20.4342C16.4033 20.4087 16.4454 20.3833 16.4889 20.357C16.527 20.3353 16.5652 20.3134 16.6046 20.291C16.6475 20.2664 16.6906 20.2418 16.7349 20.2164C16.7794 20.191 16.8241 20.1656 16.87 20.1394C16.964 20.0856 17.058 20.0317 17.1519 19.9777C17.219 19.9392 17.219 19.9392 17.2874 19.8998C17.433 19.8158 17.5777 19.7301 17.7216 19.6431C18.075 19.4294 18.4309 19.2199 18.7866 19.0101C18.8957 18.9457 19.0046 18.8812 19.1137 18.8166C19.4338 18.6273 19.754 18.4381 20.075 18.2502C20.1122 18.2285 20.1122 18.2285 20.15 18.2064C20.2005 18.1768 20.251 18.1473 20.3014 18.1178C20.3264 18.1031 20.3514 18.0885 20.3772 18.0734C20.402 18.059 20.4268 18.0444 20.4523 18.0294C20.8911 17.7726 21.3278 17.5125 21.763 17.2495Z" fill="#030303"/>
</g>
<defs>
<clipPath id="clip0_99_1529">
<rect width="32" height="32" fill="white"/>
</clipPath>
</defs>
</svg>
